<!DOCTYPE svg PUBLIC "-//W3C//DTD SVG 20010904//EN" "http://www.w3.org/TR/2001/REC-SVG-20010904/DTD/svg10.dtd">
<svg version="1.0" xmlns="http://www.w3.org/2000/svg" width="711px" height="725px" viewBox="0 0 7110 7250" preserveAspectRatio="xMidYMid meet">
<g id="layer101" fill="#bebebe" stroke="none">
 <path d="M5103 6329 c-23 -4 -55 -14 -70 -23 -36 -18 -96 -83 -119 -128 -19 -36 -56 -88 -93 -127 -26 -29 -62 -98 -80 -154 -7 -20 -36 -86 -65 -145 -29 -59 -61 -127 -70 -152 -10 -25 -61 -98 -116 -165 -55 -66 -121 -157 -147 -203 -112 -193 -208 -341 -287 -442 -47 -59 -147 -199 -222 -311 -75 -112 -154 -225 -174 -251 l-38 -48 -119 133 c-233 258 -291 328 -346 420 -31 50 -67 107 -81 126 -20 27 -26 47 -26 86 0 114 -129 435 -251 626 -38 59 -114 200 -169 313 -91 185 -106 210 -143 236 -46 32 -51 36 -102 96 -20 24 -58 52 -88 65 -48 22 -65 24 -212 24 -145 0 -164 -2 -200 -22 -48 -25 -86 -65 -110 -113 -10 -19 -28 -48 -41 -63 -45 -54 -55 -115 -59 -347 -1 -118 -8 -251 -14 -295 -26 -197 -59 -714 -66 -1035 -8 -416 -21 -584 -66 -860 -21 -135 -44 -301 -49 -370 -17 -213 -30 -715 -30 -1175 0 -351 -3 -454 -15 -510 -18 -85 -19 -115 -3 -169 17 -58 102 -141 159 -156 56 -15 138 -7 186 18 38 20 140 35 438 64 183 18 826 17 1020 -2 171 -17 679 -19 1480 -8 602 9 614 11 703 112 38 44 58 107 71 226 44 398 44 393 38 805 -6 397 -5 440 33 990 6 83 10 251 10 374 0 129 8 332 20 480 44 576 60 909 60 1267 l1 301 24 33 c75 101 36 261 -83 340 -45 30 -128 60 -164 60 -11 0 -58 16 -106 36 -100 41 -159 53 -219 43z m6 -1641 c-12 -188 -25 -399 -29 -468 -5 -69 -9 -135 -9 -147 l-1 -23 -191 0 c-105 0 -278 -5 -385 -11 -107 -6 -199 -9 -205 -7 -5 2 25 46 68 98 84 101 214 272 351 461 45 63 98 134 117 159 117 154 248 338 272 382 l28 52 3 -76 c1 -42 -7 -231 -19 -420z m-2612 37 c96 -121 252 -308 378 -455 69 -80 121 -149 147 -195 7 -11 -39 -10 -242 6 -74 6 -253 14 -397 18 -144 3 -264 9 -268 12 -8 8 10 295 30 484 16 149 45 480 45 510 0 10 49 -47 110 -126 60 -79 149 -193 197 -254z m-122 -1125 c72 -5 216 -14 320 -20 197 -11 385 -30 385 -40 0 -3 -82 -99 -181 -215 -286 -331 -450 -541 -589 -753 -70 -108 -161 -245 -202 -305 l-73 -107 -6 117 c-8 149 18 865 42 1176 l12 157 81 0 c45 0 140 -4 211 -10z m2691 -84 c1 -2 -14 -186 -28 -351 -7 -77 -13 -252 -13 -388 l0 -248 -60 63 c-238 251 -558 619 -718 827 l-78 101 173 2 c149 3 721 -2 724 -6z m-1420 -378 c169 -259 257 -389 335 -498 38 -52 126 -176 196 -275 69 -99 185 -252 257 -340 72 -88 144 -176 159 -196 l27 -36 -112 -7 c-62 -3 -180 -10 -263 -16 -196 -13 -693 -13 -865 0 -296 22 -546 30 -760 25 -124 -4 -233 -9 -242 -11 -11 -3 10 35 56 100 40 57 131 198 201 313 153 249 203 321 344 498 123 155 530 625 540 625 4 0 61 -82 127 -182z"/>
 </g>
<g id="layer102" fill="#f9f9f9" stroke="none">
 <path d="M5062 6317 c-44 -14 -113 -76 -137 -123 -26 -50 -60 -98 -106 -150 -21 -23 -49 -74 -67 -120 -27 -70 -114 -261 -175 -383 -12 -24 -40 -64 -63 -90 -23 -25 -74 -100 -114 -166 -40 -66 -84 -136 -99 -155 -15 -19 -53 -73 -84 -120 -31 -47 -97 -137 -146 -200 -49 -63 -160 -218 -245 -345 -86 -126 -167 -243 -180 -258 l-23 -29 -129 144 c-250 277 -272 304 -338 412 -37 59 -77 121 -89 137 -15 21 -20 41 -18 73 6 100 -136 453 -260 644 -56 86 -92 154 -207 392 -48 98 -63 119 -114 153 -21 14 -52 44 -70 68 -22 29 -54 54 -93 74 -56 28 -68 30 -196 33 -107 3 -148 1 -186 -12 -61 -20 -113 -62 -138 -112 -11 -22 -30 -51 -42 -66 -12 -15 -31 -54 -43 -85 -20 -52 -22 -81 -25 -273 -2 -118 -8 -255 -14 -305 -25 -209 -52 -613 -61 -935 -15 -530 -27 -684 -71 -957 -22 -133 -44 -300 -49 -370 -17 -217 -30 -717 -30 -1172 0 -354 -3 -449 -16 -521 -15 -81 -15 -92 0 -144 43 -146 197 -214 337 -149 71 34 407 69 774 82 214 7 285 5 885 -29 152 -9 330 -10 605 -5 360 8 645 12 1015 14 221 2 296 23 364 102 44 52 62 106 75 234 6 55 18 170 27 255 14 130 16 220 11 555 -4 243 -3 455 4 540 23 322 30 469 39 825 5 206 13 425 19 485 28 288 53 791 58 1160 4 317 8 403 19 415 43 49 57 159 29 228 -20 47 -88 117 -139 144 -21 11 -68 26 -105 33 -36 8 -104 30 -151 50 -91 37 -169 45 -238 22z m70 -1209 c-3 -83 -29 -530 -52 -898 -5 -74 -9 -141 -9 -147 -1 -10 -34 -13 -133 -13 -73 0 -249 -5 -392 -11 -142 -5 -260 -8 -262 -6 -2 2 30 44 70 94 107 131 205 258 261 338 50 72 173 238 345 470 71 95 175 253 175 265 0 0 -1 -42 -3 -92z m-2796 -173 c159 -210 538 -674 564 -690 10 -6 130 -172 130 -179 0 -4 -88 1 -265 16 -71 6 -246 13 -387 17 -141 3 -259 9 -263 12 -7 8 10 313 25 439 9 73 50 537 50 565 0 12 -1 14 146 -180z m309 -1350 c143 -8 289 -19 325 -25 84 -13 279 -30 352 -30 l57 0 91 -132 c50 -73 183 -270 296 -438 321 -480 514 -747 714 -990 l144 -175 -165 -12 c-401 -30 -956 -31 -1219 -3 -211 23 -844 14 -1150 -16 l-65 -6 1 423 c1 433 13 814 39 1179 9 113 15 216 15 229 l0 24 153 -6 c83 -4 269 -13 412 -22z m2421 -69 c1 -2 -14 -199 -28 -351 -7 -77 -12 -252 -12 -389 l0 -248 -65 68 c-36 38 -122 132 -191 209 -69 77 -158 175 -198 218 -40 44 -147 172 -238 286 l-165 206 173 5 c136 5 720 1 724 -4z"/>
 </g>

</svg>